img]http://www.pix2links.com/images/88942288108863483848.gif[/img]
[img]http://www.iwatchstuff.com/2010/11/30/i-am-number-four-poster.jpg[/img]

[quote]
General
Complete name                    : I Am Number Four[2011]DvDrip[Eng]-{daremusic}
Format                                  : AVI
Format/Info                           : Audio Video Interleave
File size                                : 700 MiB
Duration                                :  1h 49mn
Overall bit rate                      : 893 Kbps
Writing application                : VirtualDubMod 1.5.10.2 (build 2540/release)
Writing library                       : VirtualDubMod build 2540/release

Video
ID                                             : 0
Format                                     : MPEG-4 Visual
Format profile                          : Advanced Simple@L5
Format settings, BVOP            : 2
Format settings, QPel              : No
Format settings, GMC              : No warppoints
Format settings, Matrix             : Default (H.263)
Muxing mode                            : Packed bitstream
Codec ID                                   : DX50
Codec ID/Hint                            : DivX 5
Duration                                     : 1h 49mn
Bit rate                                       : 756 Kbps
Width                                         : 616 pixels
Height                                        : 320 pixels
Display aspect ratio                   : 1.925
Frame rate                                 : 23.976 fps
Color space                               : YUV
Chroma subsampling                : 4:2:0
Bit depth                                   : 8 bits
Scan type                                 : Progressive
Compression mode                  : Lossy
Bits/(Pixel*Frame)                    : 0.160
Stream size                              : 593 MiB (85%)
Writing library                           : XviD 1.2.1 (UTC 2008-12-04)

Audio
ID                                   : 1
Format                           : MPEG Audio
Format version              : Version 1
Format profile                : Layer 3
Mode                             : Joint stereo
Mode extension             : MS Stereo
Codec ID                       : 55
Codec ID/Hint                : MP3
Duration                         : 1h 49mn
Bit rate mode                  : Constant
Bit rate                            : 128 Kbps
Channel(s)                      : 2 channels
Sampling rate                 : 48.0 KHz
Compression mode        : Lossy
Stream size                    : 100 MiB (14%)
Alignment                       : Aligned on interleaves
Interleave, duration        : 42 ms (1.00 video frame)
Interleave, preload duration     : 504 ms
[/quote]

[img]http://image.bayimg.com/bajfmaado.jpg[/img]
[img]http://image.bayimg.com/bajfnaado.jpg[/img]
[img]http://image.bayimg.com/bajfoaado.jpg[/img]
[img]http://image.bayimg.com/cajfcaado.jpg[/img]


[img]http://www.pix2links.com/images/84063166943178392908.png[/img]
[img]http://www.pix2links.com/images/08857976281622243376.gif[/img]